<svg width="512" height="512" viewBox="0 0 512 512" fill="none" xmlns="http://www.w3.org/2000/svg" role="img" aria-label="Assistant Foyer – maison en pleine canicule">
  <defs>
    <linearGradient id="bg" x1="0" y1="0" x2="0" y2="1">
      <stop offset="0" stop-color="#FFE7A6"/>
      <stop offset="1" stop-color="#FFB067"/>
    </linearGradient>
    <radialGradient id="sun" cx="0.5" cy="0.5" r="0.5">
      <stop offset="0" stop-color="#FFF3C4"/>
      <stop offset="0.55" stop-color="#FFC24B"/>
      <stop offset="1" stop-color="#FF8A3D"/>
    </radialGradient>
    <linearGradient id="roof" x1="0" y1="0" x2="0" y2="1">
      <stop offset="0" stop-color="#8FAE99"/>
      <stop offset="1" stop-color="#7C9885"/>
    </linearGradient>
    <linearGradient id="window" x1="0" y1="0" x2="0" y2="1">
      <stop offset="0" stop-color="#FFF6DA"/>
      <stop offset="1" stop-color="#FFD98A"/>
    </linearGradient>
  </defs>

  <!-- Fond arrondi (squircle) -->
  <rect x="16" y="16" width="480" height="480" rx="112" fill="url(#bg)"/>

  <!-- Soleil de canicule + rayons -->
  <g stroke="#FFAE4D" stroke-width="14" stroke-linecap="round" opacity="0.9">
    <line x1="386" y1="70" x2="386" y2="30"/>
    <line x1="452" y1="136" x2="492" y2="136"/>
    <line x1="437" y1="87" x2="466" y2="58"/>
    <line x1="437" y1="185" x2="466" y2="214"/>
    <line x1="335" y1="87" x2="306" y2="58"/>
  </g>
  <circle cx="386" cy="136" r="60" fill="url(#sun)"/>

  <!-- Ondes de chaleur -->
  <g stroke="#FF8A3D" stroke-width="9" stroke-linecap="round" fill="none" opacity="0.55">
    <path d="M96 150 q18 -18 36 0 t36 0 t36 0"/>
    <path d="M92 196 q18 -18 36 0 t36 0"/>
  </g>

  <!-- Ombre douce sous la maison -->
  <ellipse cx="256" cy="432" rx="150" ry="20" fill="#E8863F" opacity="0.35"/>

  <!-- Toit -->
  <path d="M256 176 L410 300 L102 300 Z" fill="url(#roof)"/>
  <path d="M256 176 L410 300 L102 300 Z" fill="#000" opacity="0.06"/>

  <!-- Corps de la maison -->
  <rect x="140" y="290" width="232" height="150" rx="16" fill="#FFFDF8"/>

  <!-- Fenêtre avec le couple -->
  <rect x="180" y="310" width="152" height="120" rx="12" fill="url(#window)"/>

  <!-- Femme (cheveux longs + robe) -->
  <g>
    <path d="M228 368 l22 56 h-44 Z" fill="#7C9885"/>            <!-- robe -->
    <path d="M212 350 q0 -26 16 -26 q16 0 16 26 v30 q0 8 -6 8 h-20 q-6 0 -6 -8 Z" fill="#5B4636"/> <!-- cheveux longs -->
    <circle cx="228" cy="350" r="16" fill="#F2C9A0"/>            <!-- visage -->
    <path d="M214 345 q6 -19 14 -19 q8 0 14 19 q-14 -7 -28 0 Z" fill="#5B4636"/> <!-- frange -->
    <circle cx="222" cy="351" r="2.3" fill="#3B3A36"/>          <!-- oeil g -->
    <circle cx="234" cy="351" r="2.3" fill="#3B3A36"/>          <!-- oeil d -->
    <path d="M221 357 q7 6 14 0" stroke="#3B3A36" stroke-width="2" fill="none" stroke-linecap="round"/> <!-- sourire -->
  </g>

  <!-- Homme (cheveux courts + épaules) -->
  <g>
    <rect x="280" y="360" width="12" height="34" rx="6" fill="#F2C9A0"/>    <!-- cou -->
    <path d="M256 424 L272 392 Q286 388 300 392 L316 424 Z" fill="#B5754C"/> <!-- épaules/chemise -->
    <circle cx="286" cy="350" r="16" fill="#F2C9A0"/>            <!-- visage -->
    <path d="M270 347 q4 -23 16 -23 q12 0 16 23 q-6 -8 -16 -8 q-10 0 -16 8 Z" fill="#4B3A2E"/> <!-- cheveux courts -->
    <circle cx="280" cy="351" r="2.3" fill="#3B3A36"/>          <!-- oeil g -->
    <circle cx="292" cy="351" r="2.3" fill="#3B3A36"/>          <!-- oeil d -->
    <path d="M279 357 q7 6 14 0" stroke="#3B3A36" stroke-width="2" fill="none" stroke-linecap="round"/> <!-- sourire -->
  </g>

  <!-- petit coeur entre eux -->
  <path d="M257 336 a4 4 0 0 1 7 2 a4 4 0 0 1 7 -2 q0 5 -7 9 q-7 -4 -7 -9 Z" fill="#E06A5B"/>

  <!-- cadre de la fenêtre -->
  <rect x="180" y="310" width="152" height="120" rx="12" fill="none" stroke="#B98A3C" stroke-width="6" opacity="0.7"/>
</svg>



